<svg width="46" height="32" viewBox="0 0 46 32" fill="none" xmlns="http://www.w3.org/2000/svg">
<g id="amex.svg" clip-path="url(#clip0_2232_28113)">
<g id="Group">
<path id="Vector" fill-rule="evenodd" clip-rule="evenodd" d="M0 2.996C0.0021155 2.20137 0.318992 1.43995 0.881258 0.878432C1.44352 0.316916 2.20537 0.00105528 3 0L43 0C44.657 0 46 1.334 46 2.996V29.004C45.9979 29.7986 45.681 30.5601 45.1187 31.1216C44.5565 31.6831 43.7946 31.9989 43 32H3C1.343 32 0 30.666 0 29.004V2.996Z" fill="#016FD0"/>
<path id="Vector_2" fill-rule="evenodd" clip-rule="evenodd" d="M8.9359 24.202V17.064H16.5479L17.3649 18.121L18.2089 17.064H45.8399V23.71C45.8399 23.71 45.1169 24.195 44.2819 24.202H28.9819L28.0609 23.077V24.202H25.0429V22.282C25.0429 22.282 24.6309 22.549 23.7399 22.549H22.7129V24.202H18.1439L17.3279 23.122L16.4999 24.202H8.9359ZM0.0458984 11.684L1.7629 7.70996H4.7299L5.7049 9.93596V7.70996H9.3949L9.9749 9.31996L10.5369 7.70996H27.1029V8.51996C27.1029 8.51996 27.9739 7.70996 29.4059 7.70996L34.7809 7.72896L35.7379 9.92596V7.70996H38.8269L39.6769 8.97196V7.70996H42.7929V14.849H39.6769L38.8619 13.583V14.849H34.3239L33.8679 13.723H32.6479L32.1999 14.85H29.1229C27.8919 14.85 27.1039 14.057 27.1039 14.057V14.85H22.4639L21.5439 13.724V14.85H4.2919L3.8359 13.724H2.6199L2.1669 14.85H0.0458984V11.685V11.684Z" fill="white"/>
<path id="Vector_3" d="M2.36993 8.58997L0.0549316 13.935H1.56193L1.98893 12.865H4.47293L4.89793 13.935H6.43793L4.12693 8.58997H2.36993ZM3.22693 9.83397L3.98393 11.704H2.46793L3.22693 9.83397Z" fill="#016FD0"/>
<path id="Vector_4" fill-rule="evenodd" clip-rule="evenodd" d="M6.5979 13.934V8.58997L8.7399 8.59797L9.9859 12.044L11.2019 8.58997H13.3269V13.935H11.9809V9.99597L10.5549 13.934H9.3749L7.9439 9.99597V13.934H6.5979ZM14.2479 13.934V8.58997H18.6399V9.78597H15.6079V10.7H18.5689V11.825H15.6089V12.775H18.6389V13.935L14.2479 13.934Z" fill="#016FD0"/>
<path id="Vector_5" d="M19.4189 8.58997V13.935H20.7649V12.036H21.3319L22.9449 13.936H24.5899L22.8189 11.966C23.2259 11.9269 23.6034 11.7365 23.8768 11.4324C24.1501 11.1284 24.2993 10.7328 24.2949 10.324C24.2949 9.19997 23.4059 8.58997 22.4139 8.58997H19.4189ZM20.7649 9.78597H22.3029C22.6729 9.78597 22.9409 10.073 22.9409 10.349C22.9409 10.704 22.5929 10.911 22.3229 10.911H20.7649V9.78597Z" fill="#016FD0"/>
<path id="Vector_6" fill-rule="evenodd" clip-rule="evenodd" d="M26.22 13.934H24.845V8.58999H26.219L26.22 13.934ZM29.477 13.934H29.181C27.746 13.934 26.874 12.812 26.874 11.284C26.874 9.71799 27.736 8.58899 29.548 8.58899H31.036V9.85499H29.494C28.758 9.85499 28.238 10.425 28.238 11.297C28.238 12.332 28.833 12.767 29.69 12.767H30.044L29.477 13.934Z" fill="#016FD0"/>
<path id="Vector_7" d="M32.4061 8.58997L30.0911 13.935H31.5981L32.0251 12.865H34.5091L34.9341 13.935H36.4741L34.1621 8.58997H32.4071H32.4061ZM33.2631 9.83397L34.0201 11.704H32.5031L33.2631 9.83397Z" fill="#016FD0"/>
<path id="Vector_8" fill-rule="evenodd" clip-rule="evenodd" d="M36.632 13.934V8.58999H38.342L40.528 11.949V8.58899H41.873V13.934H40.218L37.978 10.488V13.934H36.632ZM9.85596 23.288V17.943H14.248V19.138H11.216V20.053H14.177V21.178H11.217V22.128H14.248V23.288H9.85596ZM31.376 23.288V17.943H35.767V19.138H32.736V20.053H35.682V21.178H32.736V22.128H35.767V23.288H31.376ZM14.419 23.288L16.557 20.648L14.367 17.943H16.063L17.367 19.615L18.675 17.943H20.305L18.144 20.615L20.286 23.288H18.591L17.325 21.642L16.09 23.288H14.419Z" fill="#016FD0"/>
<path id="Vector_9" d="M20.446 17.944V23.289H21.827V21.6H23.244C24.443 21.6 25.351 20.968 25.351 19.74C25.351 18.723 24.639 17.943 23.419 17.943L20.446 17.944ZM21.827 19.153H23.319C23.707 19.153 23.983 19.388 23.983 19.768C23.983 20.125 23.708 20.383 23.315 20.383H21.827V19.153ZM25.936 17.943V23.288H27.282V21.388H27.848L29.462 23.288H31.107L29.336 21.318C29.7429 21.2789 30.1202 21.0887 30.3935 20.7848C30.6668 20.481 30.8162 20.0857 30.812 19.677C30.812 18.552 29.923 17.943 28.931 17.943H25.936ZM27.282 19.138H28.82C29.19 19.138 29.458 19.425 29.458 19.701C29.458 20.056 29.11 20.264 28.84 20.264H27.282V19.138Z" fill="#016FD0"/>
<path id="Vector_10" fill-rule="evenodd" clip-rule="evenodd" d="M36.39 23.288V22.128H39.084C39.483 22.128 39.655 21.913 39.655 21.679C39.655 21.454 39.483 21.227 39.085 21.227H37.867C36.809 21.227 36.22 20.587 36.22 19.627C36.22 18.769 36.76 17.943 38.332 17.943H40.952L40.386 19.145H38.119C37.686 19.145 37.553 19.371 37.553 19.587C37.553 19.808 37.717 20.053 38.048 20.053H39.323C40.503 20.053 41.015 20.717 41.015 21.587C41.015 22.522 40.445 23.287 39.259 23.287H36.391L36.39 23.288ZM41.33 23.288V22.128H44.024C44.422 22.128 44.595 21.913 44.595 21.679C44.595 21.454 44.423 21.227 44.024 21.227H42.807C41.749 21.227 41.16 20.587 41.16 19.627C41.16 18.769 41.7 17.943 43.271 17.943H45.892L45.325 19.145H43.06C42.626 19.145 42.493 19.371 42.493 19.587C42.493 19.808 42.658 20.053 42.989 20.053H44.264C45.444 20.053 45.955 20.717 45.955 21.587C45.955 22.522 45.385 23.287 44.2 23.287L41.33 23.288Z" fill="#016FD0"/>
</g>
</g>
<defs>
<clipPath id="clip0_2232_28113">
<rect width="46" height="32" fill="white"/>
</clipPath>
</defs>
</svg>
