<svg width="46" height="32" viewBox="0 0 46 32" fill="none" xmlns="http://www.w3.org/2000/svg">
<g id="visa.svg" clip-path="url(#clip0_2232_28098)">
<g id="Group">
<path id="Vector" fill-rule="evenodd" clip-rule="evenodd" d="M0.500001 2.99601V29.004C0.499737 29.3322 0.56425 29.6572 0.689842 29.9604C0.815435 30.2636 0.999637 30.5391 1.23189 30.771C1.46414 31.0028 1.73987 31.1866 2.04328 31.3117C2.34669 31.4368 2.67181 31.5008 3 31.5H43C44.375 31.5 45.5 30.38 45.5 29.004V2.99601C45.5003 2.66782 45.4357 2.3428 45.3102 2.03959C45.1846 1.73638 45.0004 1.46094 44.7681 1.22906C44.5359 0.997184 44.2601 0.813424 43.9567 0.688317C43.6533 0.56321 43.3282 0.499218 43 0.500007H3C1.625 0.500007 0.500001 1.62001 0.500001 2.99601Z" fill="white" stroke="#E6E7E8"/>
<g id="Group_2">
<path id="Vector_2" fill-rule="evenodd" clip-rule="evenodd" d="M20.925 20.691H18.458L20 11.417H22.467L20.925 20.691ZM29.868 11.644C29.1604 11.3793 28.4105 11.2454 27.655 11.249C25.219 11.249 23.503 12.512 23.493 14.317C23.473 15.649 24.721 16.389 25.655 16.833C26.609 17.287 26.934 17.583 26.934 17.988C26.924 18.609 26.163 18.896 25.452 18.896C24.467 18.896 23.94 18.748 23.138 18.402L22.813 18.254L22.467 20.336C23.047 20.592 24.112 20.82 25.219 20.83C27.808 20.83 29.493 19.586 29.513 17.662C29.523 16.607 28.863 15.798 27.442 15.137C26.579 14.712 26.051 14.426 26.051 13.992C26.061 13.597 26.498 13.192 27.471 13.192C28.1024 13.174 28.73 13.2956 29.309 13.548L29.532 13.646L29.868 11.644Z" fill="#0742A6"/>
<path id="Vector_3" d="M33.1471 17.406L34.1321 14.811C34.1221 14.831 34.3351 14.268 34.4561 13.923L34.6291 14.723C34.6291 14.723 35.0961 16.943 35.1981 17.406H33.1471ZM36.1921 11.417H34.2841C33.6951 11.417 33.2481 11.585 32.9941 12.187L29.3301 20.69H31.9191L32.4361 19.3H35.6041C35.6741 19.625 35.8981 20.69 35.8981 20.69H38.1821L36.1921 11.417Z" fill="#0742A6"/>
<path id="Vector_4" fill-rule="evenodd" clip-rule="evenodd" d="M16.3971 11.417L13.9811 17.741L13.7171 16.459C13.2701 14.979 11.8691 13.371 10.3071 12.571L12.5191 20.681H15.1281L19.0061 11.417H16.3971Z" fill="#0742A6"/>
<path id="Vector_5" fill-rule="evenodd" clip-rule="evenodd" d="M11.737 11.417H7.76803L7.72803 11.604C10.824 12.374 12.874 14.229 13.717 16.459L12.854 12.197C12.712 11.604 12.275 11.437 11.737 11.417Z" fill="#0742A6"/>
</g>
</g>
</g>
<defs>
<clipPath id="clip0_2232_28098">
<rect width="46" height="32" fill="white"/>
</clipPath>
</defs>
</svg>
