<svg width="46" height="32" viewBox="0 0 46 32" fill="none" xmlns="http://www.w3.org/2000/svg">
<g id="mastercard.svg" clip-path="url(#clip0_2232_28106)">
<g id="Group">
<path id="Vector" fill-rule="evenodd" clip-rule="evenodd" d="M0.500001 2.99601V29.004C0.499737 29.3322 0.56425 29.6572 0.689842 29.9604C0.815435 30.2636 0.999637 30.5391 1.23189 30.771C1.46414 31.0028 1.73987 31.1866 2.04328 31.3117C2.34669 31.4368 2.67181 31.5008 3 31.5H43C44.375 31.5 45.5 30.38 45.5 29.004V2.99601C45.5003 2.66782 45.4357 2.3428 45.3102 2.03959C45.1846 1.73638 45.0004 1.46094 44.7681 1.22906C44.5359 0.997184 44.2601 0.813424 43.9567 0.688317C43.6533 0.56321 43.3282 0.499218 43 0.500007H3C1.625 0.500007 0.500001 1.62001 0.500001 2.99601Z" fill="white" stroke="#E6E7E8"/>
<path id="Vector_2" fill-rule="evenodd" clip-rule="evenodd" d="M19.2771 10.105H26.5971V21.874H19.2771V10.105Z" fill="#FF5F00"/>
<path id="Vector_3" fill-rule="evenodd" clip-rule="evenodd" d="M20.0301 15.99C20.0315 14.8523 20.2941 13.7301 20.7978 12.7099C21.3015 11.6898 22.0327 10.7989 22.9351 10.106C19.8171 7.695 15.3401 8.046 12.6511 10.913C11.3553 12.2861 10.6335 14.1026 10.6335 15.9905C10.6335 17.8784 11.3553 19.6949 12.6511 21.068C15.3411 23.935 19.8171 24.287 22.9351 21.875C22.0326 21.182 21.3013 20.291 20.7976 19.2706C20.2939 18.2503 20.0313 17.1279 20.0301 15.99Z" fill="#EB001B"/>
<path id="Vector_4" d="M34.595 21.185V20.482H34.761V20.337H34.365V20.482H34.521V21.185H34.595ZM35.365 21.185V20.337H35.245L35.105 20.943L34.965 20.337H34.845V21.185H34.931V20.543L35.061 21.094H35.151L35.281 20.543V21.185H35.365Z" fill="#F79E1B"/>
<path id="Vector_5" fill-rule="evenodd" clip-rule="evenodd" d="M35.2371 15.99C35.2371 18.855 33.5751 21.469 30.9571 22.721C29.6722 23.3351 28.2423 23.5809 26.8262 23.4312C25.41 23.2815 24.0631 22.7421 22.9351 21.873C23.8368 21.1795 24.5675 20.2885 25.0711 19.2685C25.5747 18.2485 25.8378 17.1266 25.8401 15.989C25.8379 14.8513 25.5749 13.7292 25.0713 12.709C24.5677 11.6888 23.8369 10.7976 22.9351 10.104C24.063 9.23507 25.4097 8.69581 26.8257 8.54611C28.2416 8.39641 29.6714 8.64214 30.9561 9.25601C33.5751 10.508 35.2371 13.122 35.2371 15.988V15.99Z" fill="#F79E1B"/>
</g>
</g>
<defs>
<clipPath id="clip0_2232_28106">
<rect width="46" height="32" fill="white"/>
</clipPath>
</defs>
</svg>
