<svg width="174" height="80" viewBox="0 0 174 80" fill="none" xmlns="http://www.w3.org/2000/svg">
<path d="M10.0393 67.7866V75.3079H8.76442V67.7866H5.95947V66.5968H12.8445V67.7866H10.0393Z" fill="white"/>
<path d="M17.9687 75.3079V70.9591C17.9687 70.4123 17.6734 70.1523 16.9754 70.1523C16.2507 70.1523 15.486 70.4668 15.0831 70.7813V75.3079H13.9695V65.7079L15.0831 65.4345V69.7827C15.7946 69.277 16.4656 69.0856 17.2977 69.0856C18.3444 69.0856 19.0827 69.5779 19.0827 70.9316V75.3079H17.9687Z" fill="white"/>
<path d="M24.3552 71.4789V71.2871C24.3552 70.5623 23.9527 70.0841 23.0399 70.0841C22.1405 70.0841 21.5903 70.7537 21.4965 71.4789H24.3552ZM25.3215 74.843C24.8383 75.2526 24.1 75.4445 23.3483 75.4445C21.5096 75.4445 20.2617 74.1866 20.2617 72.2991C20.2617 70.2615 21.5769 69.0856 23.1474 69.0856C24.5566 69.0856 25.5093 69.9611 25.5093 71.4512C25.5093 71.7112 25.4959 72.1624 25.4692 72.4358H21.4025C21.4294 73.6121 22.2749 74.3507 23.5231 74.3507C24.3151 74.3507 24.986 74.0222 25.3215 73.6803V74.843Z" fill="white"/>
<path d="M29.9757 75.3079V66.5968H31.2508V74.1186H35.2371V75.3079H29.9757Z" fill="white"/>
<path d="M39.8252 71.4789V71.2871C39.8252 70.5623 39.4228 70.0841 38.5102 70.0841C37.6108 70.0841 37.0604 70.7537 36.9666 71.4789H39.8252ZM40.7915 74.843C40.3084 75.2526 39.5701 75.4445 38.8187 75.4445C36.9797 75.4445 35.7318 74.1866 35.7318 72.2991C35.7318 70.2615 37.047 69.0856 38.6174 69.0856C40.0267 69.0856 40.9794 69.9611 40.9794 71.4512C40.9794 71.7112 40.966 72.1624 40.9392 72.4358H36.8726C36.8995 73.6121 37.745 74.3507 38.9934 74.3507C39.7851 74.3507 40.4561 74.0222 40.7915 73.6803V74.843Z" fill="white"/>
<path d="M45.2592 72.641C43.823 72.8599 43.2997 73.1744 43.2997 73.7899C43.2997 74.2681 43.5678 74.4874 44.239 74.4874C44.6148 74.4874 45.0578 74.3644 45.2592 74.1866V72.641ZM43.7559 75.4445C42.8703 75.4445 42.132 74.9388 42.132 73.9677C42.132 72.7368 43.1384 72.0391 45.2592 71.7517V70.8768C45.2592 70.6034 45.1919 70.4808 45.0308 70.3705C44.8295 70.2344 44.5209 70.1657 44.1182 70.1657C43.3935 70.1657 42.6956 70.4667 42.3736 70.8498V69.7285C42.776 69.3044 43.5143 69.0856 44.266 69.0856C45.6216 69.0856 46.3728 69.7285 46.3728 71.0001C46.3728 71.2053 46.3059 73.9677 46.3059 74.2681C46.467 74.3773 46.6816 74.4325 46.8829 74.4325C46.9366 74.4325 46.9771 74.4325 47.0172 74.4189L46.9101 75.4034C46.8158 75.4311 46.695 75.4445 46.6012 75.4445C46.1448 75.4445 45.7423 75.3078 45.4471 74.9522C44.8699 75.3353 44.2793 75.4445 43.7559 75.4445Z" fill="white"/>
<path d="M51.9679 70.4393C51.7397 70.2889 51.2031 70.1657 50.76 70.1657C49.6191 70.1657 48.7468 70.8364 48.7468 72.3813C48.7468 73.7214 49.5117 74.3644 50.76 74.3644C51.2296 74.3644 51.6862 74.2681 51.9679 74.1448V70.4393ZM53.0819 74.8155C52.4109 75.2122 51.5652 75.4445 50.6257 75.4445C48.7333 75.4445 47.5658 74.3367 47.5658 72.3813C47.5658 70.3845 48.9481 69.0856 50.6658 69.0856C51.2162 69.0856 51.659 69.1952 51.9679 69.3455V65.7079L53.0819 65.4344V74.8155Z" fill="white"/>
<path d="M58.327 71.4789V71.2871C58.327 70.5623 57.9245 70.0841 57.0118 70.0841C56.1126 70.0841 55.5623 70.7537 55.4685 71.4789H58.327ZM59.2933 74.843C58.8101 75.2526 58.0719 75.4445 57.3204 75.4445C55.4817 75.4445 54.2337 74.1866 54.2337 72.2991C54.2337 70.2615 55.549 69.0856 57.1195 69.0856C58.5286 69.0856 59.4816 69.9611 59.4816 71.4512C59.4816 71.7112 59.4678 72.1624 59.4413 72.4358H55.3745C55.4014 73.6121 56.2469 74.3507 57.4949 74.3507C58.2867 74.3507 58.9581 74.0222 59.2933 73.6803V74.843Z" fill="white"/>
<path d="M64.2175 70.3301C64.0695 70.2616 63.8685 70.2209 63.6134 70.2209C63.1032 70.2209 62.4859 70.4123 61.9757 70.8635V75.3079H60.8621V69.2223H61.8416L61.9757 69.8519C62.513 69.2904 63.0497 69.0856 63.5731 69.0856C63.8547 69.0856 64.043 69.1538 64.2175 69.277V70.3301Z" fill="white"/>
<path d="M68.2543 75.3079V69.2223H69.3686V75.3079H68.2543ZM68.8048 67.8277C68.3217 67.8277 68.0401 67.4858 68.0401 67.0346C68.0401 66.5698 68.3217 66.2277 68.8181 66.2277C69.3012 66.2277 69.5834 66.5698 69.5834 67.0346C69.5834 67.4858 69.3012 67.8277 68.8048 67.8277Z" fill="white"/>
<path d="M74.8569 75.3079V70.9591C74.8569 70.4123 74.562 70.1523 73.8636 70.1523C73.2601 70.1523 72.4948 70.4668 72.0923 70.7813V75.3079H70.9786V69.2223H71.9581L72.079 69.7827C72.7631 69.277 73.4749 69.0856 74.186 69.0856C75.2329 69.0856 75.9711 69.5779 75.9711 70.9316V75.3079H74.8569Z" fill="white"/>
<path d="M81.8731 70.9316H82.9602C84.0607 70.9316 84.7453 70.3576 84.7453 69.277C84.7453 68.2378 84.128 67.7044 82.8261 67.7044H81.8731V70.9316ZM82.9602 72.0392H81.8731V75.3079H80.5981V66.5968H83.0006C85.0943 66.5968 86.0876 67.6635 86.0876 69.2634C86.0876 70.809 84.9331 72.0392 82.9602 72.0392Z" fill="white"/>
<path d="M91.5074 72.2439C91.5074 70.9456 90.7018 70.1657 89.6152 70.1657C88.5147 70.1657 87.6826 71.0001 87.6826 72.2857C87.6826 73.5847 88.4877 74.3644 89.5743 74.3644C90.6753 74.3644 91.5074 73.5299 91.5074 72.2439ZM89.5743 75.4445C87.803 75.4445 86.501 74.1589 86.501 72.2857C86.501 70.4392 87.8969 69.0856 89.6152 69.0856C91.387 69.0856 92.6884 70.3705 92.6884 72.2439C92.6884 74.091 91.2926 75.4445 89.5743 75.4445Z" fill="white"/>
<path d="M93.9343 75.3079V65.7079L95.0486 65.4345V75.3079H93.9343Z" fill="white"/>
<path d="M99.49 72.641C98.0539 72.8599 97.5305 73.1744 97.5305 73.7899C97.5305 74.2681 97.7994 74.4874 98.4697 74.4874C98.8457 74.4874 99.2885 74.3644 99.49 74.1866V72.641ZM97.9865 75.4445C97.1009 75.4445 96.3627 74.9388 96.3627 73.9677C96.3627 72.7368 97.3692 72.0391 99.49 71.7517V70.8768C99.49 70.6034 99.4227 70.4808 99.262 70.3705C99.0605 70.2344 98.7518 70.1657 98.3493 70.1657C97.6243 70.1657 96.9264 70.4667 96.604 70.8498V69.7285C97.007 69.3044 97.7452 69.0856 98.4967 69.0856C99.8523 69.0856 100.604 69.7285 100.604 71.0001C100.604 71.2053 100.537 73.9677 100.537 74.2681C100.698 74.3773 100.912 74.4325 101.114 74.4325C101.167 74.4325 101.208 74.4325 101.248 74.4189L101.14 75.4034C101.047 75.4311 100.926 75.4445 100.832 75.4445C100.376 75.4445 99.9732 75.3078 99.6778 74.9522C99.1008 75.3353 98.5105 75.4445 97.9865 75.4445Z" fill="white"/>
<path d="M105.648 70.3301C105.501 70.2616 105.299 70.2209 105.045 70.2209C104.535 70.2209 103.917 70.4123 103.407 70.8635V75.3079H102.293V69.2223H103.273L103.407 69.8519C103.944 69.2904 104.481 69.0856 105.004 69.0856C105.286 69.0856 105.474 69.1538 105.648 69.277V70.3301Z" fill="white"/>
<path d="M111.376 71.6021H113.953L112.893 68.73L112.692 67.951L112.477 68.73L111.376 71.6021ZM114.369 72.7503H110.934L109.954 75.3079H108.665L112.061 66.5968H113.403L116.678 75.3079H115.309L114.369 72.7503Z" fill="white"/>
<path d="M121.508 70.4393C121.279 70.2889 120.742 70.1657 120.299 70.1657C119.159 70.1657 118.286 70.8364 118.286 72.3813C118.286 73.7214 119.052 74.3644 120.299 74.3644C120.769 74.3644 121.225 74.2681 121.508 74.1448V70.4393ZM122.621 74.8155C121.95 75.2122 121.104 75.4445 120.165 75.4445C118.273 75.4445 117.105 74.3367 117.105 72.3813C117.105 70.3845 118.487 69.0856 120.206 69.0856C120.756 69.0856 121.198 69.1952 121.508 69.3455V65.7079L122.621 65.4344V74.8155Z" fill="white"/>
<path d="M126.874 75.3079H125.881L123.599 69.2904L124.78 69.1538L126.257 73.2292L126.444 73.8586L126.659 73.2292L128.283 69.2223H129.478L126.874 75.3079Z" fill="white"/>
<path d="M133.811 71.4789V71.2871C133.811 70.5623 133.408 70.0841 132.495 70.0841C131.596 70.0841 131.046 70.7537 130.952 71.4789H133.811ZM134.777 74.843C134.294 75.2526 133.555 75.4445 132.804 75.4445C130.965 75.4445 129.717 74.1866 129.717 72.2991C129.717 70.2615 131.033 69.0856 132.603 69.0856C134.012 69.0856 134.965 69.9611 134.965 71.4512C134.965 71.7112 134.952 72.1624 134.925 72.4358H130.858C130.885 73.6121 131.731 74.3507 132.978 74.3507C133.77 74.3507 134.442 74.0222 134.777 73.6803V74.843Z" fill="white"/>
<path d="M140.224 75.3079V70.9591C140.224 70.4123 139.929 70.1523 139.231 70.1523C138.627 70.1523 137.862 70.4668 137.46 70.7813V75.3079H136.345V69.2223H137.325L137.446 69.7827C138.13 69.277 138.842 69.0856 139.553 69.0856C140.6 69.0856 141.338 69.5779 141.338 70.9316V75.3079H140.224Z" fill="white"/>
<path d="M146.207 74.843C145.859 75.2667 145.322 75.4445 144.812 75.4445C143.926 75.4445 143.282 74.9656 143.282 73.9677V70.2208H142.275V69.2222H143.282V67.8821L144.396 67.6088V69.2222H145.966V70.2208H144.396V73.8033C144.396 74.2136 144.638 74.3773 145.107 74.3773C145.577 74.3773 145.979 74.1448 146.207 73.8585V74.843Z" fill="white"/>
<path d="M148.408 69.2222V73.571C148.408 74.1185 148.703 74.3773 149.402 74.3773C149.911 74.3773 150.676 74.0633 151.079 73.7484V69.2222H152.193V75.3078H151.213L151.092 74.7333C150.435 75.2256 149.697 75.4445 149.079 75.4445C148.032 75.4445 147.294 74.9522 147.294 73.5987V69.2222H148.408Z" fill="white"/>
<path d="M157.13 70.3301C156.982 70.2616 156.781 70.2209 156.526 70.2209C156.016 70.2209 155.399 70.4123 154.888 70.8635V75.3079H153.774V69.2223H154.754L154.888 69.8519C155.426 69.2904 155.962 69.0856 156.486 69.0856C156.767 69.0856 156.955 69.1538 157.13 69.277V70.3301Z" fill="white"/>
<path d="M161.611 71.4789V71.2871C161.611 70.5623 161.208 70.0841 160.296 70.0841C159.396 70.0841 158.846 70.7537 158.752 71.4789H161.611ZM162.577 74.843C162.094 75.2526 161.356 75.4445 160.604 75.4445C158.766 75.4445 157.517 74.1866 157.517 72.2991C157.517 70.2615 158.833 69.0856 160.403 69.0856C161.812 69.0856 162.765 69.9611 162.765 71.4512C162.765 71.7112 162.752 72.1624 162.725 72.4358H158.658C158.685 73.6121 159.53 74.3507 160.779 74.3507C161.571 74.3507 162.241 74.0222 162.577 73.6803V74.843Z" fill="white"/>
<path d="M163.81 73.817C164.146 74.1725 164.79 74.3914 165.448 74.3914C166.239 74.3914 166.508 74.1044 166.508 73.6255C166.508 72.5865 163.743 72.8188 163.743 70.9315C163.743 69.8244 164.655 69.0856 165.918 69.0856C166.562 69.0856 167.098 69.2088 167.461 69.4547V70.672C167.206 70.3845 166.575 70.1382 165.944 70.1382C165.193 70.1382 164.924 70.4122 164.924 70.8768C164.924 71.7934 167.689 71.6156 167.689 73.571C167.689 74.6237 166.897 75.4445 165.461 75.4445C164.723 75.4445 164.079 75.2667 163.73 74.9933L163.81 73.817Z" fill="white"/>
<path d="M16.3697 41.6141L16.3671 41.613L16.1409 41.4624L16.1484 41.4504C9.49525 36.8697 7.63627 27.6914 12.0276 20.7994C16.4707 13.83 25.6168 11.8486 32.4559 16.3757C39.2976 20.9009 41.2413 30.2204 36.7983 37.1884C35.6441 39.0003 34.1689 40.4659 32.5029 41.5767L40.3124 46.7433C45.0358 42.3481 47.9998 36.0252 47.9998 28.9946C47.9998 15.7225 37.4378 4.9637 24.4132 4.9637C11.3883 4.9637 0.827148 15.7225 0.827148 28.9946C0.827148 42.2667 11.3883 53.0262 24.4132 53.0262C26.9909 53.0262 29.4699 52.5988 31.792 51.8197L16.3726 41.6163L16.3697 41.6141Z" fill="#FDB52B"/>
<path d="M131.724 31.4464C131.724 32.1291 131.182 32.6819 130.511 32.6819C129.842 32.6819 129.299 32.1291 129.299 31.4464C129.299 30.764 129.842 30.2107 130.511 30.2107C131.182 30.2107 131.724 30.764 131.724 31.4464Z" fill="white"/>
<path d="M56.3392 46.7098V30.2211H66.1962V32.473H58.7527V37.2622H65.4343V39.5134H58.7527V44.4584H66.4756V46.7098H56.3392Z" fill="white"/>
<path d="M75.6706 46.7098L72.6724 42.3872L69.6494 46.7098H67.1852L71.5041 40.8346L67.4784 35.1907H70.1199L72.9264 39.2548L75.696 35.1907H78.1095L74.0953 40.8082L78.3381 46.7098H75.6706Z" fill="white"/>
<path d="M81.3848 44.4068C81.8922 44.7166 82.7569 44.9243 83.6707 44.9243C85.8555 44.9243 87.4816 43.6552 87.4816 40.7302C87.4816 38.1421 85.9577 36.9769 83.6707 36.9769C82.8579 36.9769 81.9436 37.1323 81.3848 37.3648V44.4068ZM83.6966 46.9692C82.8833 46.9692 82.1219 46.8395 81.3848 46.5802V52.9224L79.2756 53.4344V35.9671C80.5461 35.2947 82.1468 34.9321 83.9247 34.9321C87.507 34.9321 89.7173 37.0033 89.7173 40.7302C89.7173 44.5089 87.2028 46.9692 83.6966 46.9692Z" fill="white"/>
<path d="M98.7594 39.4617V39.0998C98.7594 37.7273 97.998 36.8219 96.2692 36.8219C94.5674 36.8219 93.5266 38.0899 93.3488 39.4617H98.7594ZM100.589 45.8297C99.6737 46.6065 98.2773 46.9691 96.855 46.9691C93.3737 46.9691 91.011 44.588 91.011 41.0158C91.011 37.1582 93.5007 34.932 96.4729 34.932C99.1398 34.932 100.944 36.5883 100.944 39.4096C100.944 39.9018 100.919 40.7565 100.869 41.274H93.1711C93.2219 43.5002 94.822 44.8979 97.1846 44.8979C98.6837 44.8979 99.9531 44.277 100.589 43.6298V45.8297Z" fill="white"/>
<path d="M110.662 37.4944C110.229 37.2098 109.213 36.9768 108.375 36.9768C106.216 36.9768 104.564 38.2453 104.564 41.1707C104.564 43.7067 106.012 44.9242 108.375 44.9242C109.264 44.9242 110.128 44.7429 110.662 44.5089V37.4944ZM112.77 45.778C111.5 46.5285 109.9 46.9691 108.121 46.9691C104.54 46.9691 102.329 44.8715 102.329 41.1707C102.329 37.3911 104.946 34.932 108.198 34.932C109.238 34.932 110.077 35.1385 110.662 35.4238V28.4985L112.77 27.9931V45.778Z" fill="white"/>
<path d="M115.817 46.7098V35.1907H117.925V46.7098H115.817Z" fill="white"/>
<path d="M127.401 45.8297C126.74 46.6329 125.723 46.9691 124.759 46.9691C123.081 46.9691 121.863 46.0626 121.863 44.1727V37.0806H119.956V35.1906H121.863V31.9492L123.971 31.4462V35.1906H126.943V37.0806H123.971V43.8628C123.971 44.6396 124.428 44.9495 125.316 44.9495C126.206 44.9495 126.968 44.5089 127.401 43.9661V45.8297Z" fill="white"/>
<path d="M129.457 46.7098V35.1907H131.565V46.7098H129.457Z" fill="white"/>
<path d="M143.022 40.9114C143.022 38.4519 141.498 36.9768 139.441 36.9768C137.357 36.9768 135.782 38.5559 135.782 40.9894C135.782 43.4485 137.307 44.9242 139.364 44.9242C141.449 44.9242 143.022 43.3442 143.022 40.9114ZM139.364 46.9691C136.01 46.9691 133.546 44.5353 133.546 40.9894C133.546 37.4944 136.189 34.932 139.441 34.932C142.794 34.932 145.259 37.3647 145.259 40.9114C145.259 44.4067 142.616 46.9691 139.364 46.9691Z" fill="white"/>
<path d="M154.58 46.7098V38.4786C154.58 37.4435 154.021 36.9512 152.7 36.9512C151.557 36.9512 150.109 37.5461 149.346 38.1421V46.7098H147.238V35.1907H149.093L149.321 36.2524C150.617 35.2947 151.963 34.9321 153.31 34.9321C155.29 34.9321 156.689 35.8639 156.689 38.4269V46.7098H154.58Z" fill="white"/>
<path d="M159.099 43.8881C159.735 44.5617 160.954 44.9759 162.198 44.9759C163.697 44.9759 164.205 44.432 164.205 43.5255C164.205 41.5586 158.972 41.9981 158.972 38.4269C158.972 36.3297 160.7 34.932 163.088 34.932C164.308 34.932 165.323 35.1649 166.011 35.6308V37.9346C165.528 37.3911 164.333 36.9248 163.14 36.9248C161.716 36.9248 161.208 37.4434 161.208 38.3229C161.208 40.0572 166.442 39.7206 166.442 43.4222C166.442 45.4154 164.943 46.9691 162.224 46.9691C160.827 46.9691 159.607 46.6329 158.947 46.1142L159.099 43.8881Z" fill="white"/>
<path d="M59.1626 11.586C61.0051 8.69432 64.7984 7.87351 67.6353 9.74972C70.4723 11.6276 71.2784 15.492 69.4359 18.382C67.5934 21.2736 63.8006 22.0947 60.9637 20.2166C58.1267 18.3404 57.3206 14.476 59.1626 11.586ZM71.2602 19.5899C73.7559 15.6726 72.6643 10.4355 68.8197 7.89264C64.9751 5.34863 59.8351 6.46086 57.3383 10.3781C54.8696 14.2515 55.9154 19.4093 59.6545 21.9839L59.707 22.0285L69.485 28.4987L72.433 27.806L65.6498 23.3183C67.8705 22.9436 69.9372 21.6644 71.2602 19.5899Z" fill="white"/>
<path d="M76.4188 11.7254V19.9565C76.4188 20.9924 76.9781 21.4838 78.2989 21.4838C79.2646 21.4838 80.7128 20.8885 81.4748 20.2935V11.7254H83.5835V23.2441H81.7288L81.5002 22.1571C80.2557 23.0892 78.8576 23.5032 77.6898 23.5032C75.7076 23.5032 74.3101 22.5707 74.3101 20.0083V11.7254H76.4188Z" fill="white"/>
<path d="M91.5015 18.1968C88.7843 18.6103 87.7932 19.206 87.7932 20.3709C87.7932 21.277 88.3012 21.6915 89.5717 21.6915C90.2834 21.6915 91.121 21.4583 91.5015 21.1216V18.1968ZM88.6568 23.5032C86.9793 23.5032 85.5824 22.5453 85.5824 20.7072C85.5824 18.3779 87.4873 17.0575 91.5015 16.5135V14.8567C91.5015 14.3397 91.3745 14.1074 91.0702 13.8992C90.6898 13.6404 90.1051 13.511 89.3425 13.511C87.9705 13.511 86.6503 14.0809 86.0401 14.8061V12.6829C86.8027 11.8812 88.199 11.4666 89.6219 11.4666C92.1883 11.4666 93.6112 12.6829 93.6112 15.0902C93.6112 15.4789 93.4837 20.7072 93.4837 21.277C93.789 21.4838 94.1954 21.5877 94.5764 21.5877C94.6785 21.5877 94.7531 21.5877 94.8309 21.5618L94.6266 23.4254C94.4488 23.4772 94.2202 23.5032 94.0435 23.5032C93.1794 23.5032 92.4169 23.2441 91.8576 22.5707C90.7649 23.296 89.6468 23.5032 88.6568 23.5032Z" fill="white"/>
<path d="M102.94 13.8223C102.661 13.6929 102.281 13.6153 101.797 13.6153C100.831 13.6153 99.6634 13.9781 98.6971 14.8316V23.2443H96.5884V11.7255H98.4437L98.6971 12.916C99.7136 11.8549 100.73 11.4667 101.721 11.4667C102.255 11.4667 102.61 11.5961 102.94 11.829V13.8223Z" fill="white"/>
<path d="M111.653 23.2443L107.182 17.8864H106.597V23.2443H104.488V5.06399L106.597 4.55541V16.436H107.182L111.754 11.5961L114.243 11.8549L109.163 16.9801L114.396 23.2443H111.653Z" fill="white"/>
<path d="M170.35 33.0926C170.002 33.0926 169.664 33.1851 169.335 33.3648C169.006 33.5466 168.749 33.8055 168.564 34.1439C168.379 34.4808 168.285 34.8333 168.285 35.197C168.285 35.56 168.377 35.9073 168.559 36.2395C168.739 36.5727 168.998 36.8344 169.323 37.0185C169.652 37.2032 169.994 37.2976 170.35 37.2976C170.706 37.2976 171.048 37.2032 171.376 37.0185C171.703 36.8344 171.959 36.5727 172.138 36.2395C172.32 35.9073 172.411 35.56 172.411 35.197C172.411 34.8333 172.32 34.4808 172.134 34.1439C171.95 33.8055 171.693 33.5466 171.363 33.3648C171.032 33.1851 170.694 33.0926 170.35 33.0926ZM170.35 32.6752C170.765 32.6752 171.171 32.784 171.566 33.0001C171.961 33.2189 172.27 33.5275 172.489 33.9325C172.71 34.3364 172.821 34.7592 172.821 35.197C172.821 35.631 172.712 36.0466 172.495 36.4496C172.277 36.8489 171.972 37.1621 171.582 37.382C171.188 37.6051 170.777 37.715 170.35 37.715C169.922 37.715 169.512 37.6051 169.119 37.382C168.726 37.1621 168.422 36.8489 168.202 36.4496C167.984 36.0466 167.876 35.631 167.876 35.197C167.876 34.7592 167.987 34.3364 168.207 33.9325C168.429 33.5275 168.738 33.2189 169.134 33.0001C169.529 32.784 169.935 32.6752 170.35 32.6752Z" fill="white"/>
<path d="M169.669 35.0431H170.367C170.516 35.0431 170.632 35.0264 170.716 34.9937C170.799 34.964 170.862 34.9128 170.906 34.8458C170.951 34.7768 170.97 34.7007 170.97 34.6216C170.97 34.5008 170.929 34.4041 170.844 34.3294C170.762 34.2535 170.629 34.2151 170.447 34.2151H169.669V35.0431ZM169.346 36.4388V33.9388H170.431C170.652 33.9388 170.82 33.9617 170.931 34.0076C171.045 34.0512 171.136 34.1325 171.204 34.2452C171.273 34.3571 171.305 34.4834 171.305 34.6216C171.305 34.799 171.25 34.9478 171.138 35.0686C171.025 35.1908 170.851 35.2673 170.615 35.3007C170.7 35.3423 170.767 35.3842 170.809 35.4255C170.905 35.5145 170.996 35.6244 171.079 35.7574L171.507 36.4388H171.098L170.773 35.9182C170.68 35.7664 170.599 35.653 170.54 35.5748C170.479 35.4939 170.424 35.4376 170.375 35.4058C170.326 35.3758 170.278 35.3501 170.225 35.3398C170.19 35.3324 170.13 35.3288 170.046 35.3288H169.669V36.4388H169.346Z" fill="white"/>
<path d="M118.082 31.4464C118.082 32.1291 117.54 32.6819 116.872 32.6819C116.202 32.6819 115.658 32.1291 115.658 31.4464C115.658 30.764 116.202 30.2107 116.872 30.2107C117.54 30.2107 118.082 30.764 118.082 31.4464Z" fill="white"/>
</svg>
